MicroGrotesk-Thin.ufo
<glyph name="comma" format="2">
  <advance width="66"/>
  <unicode hex="002C"/>
  <outline>
    <contour>
      <point x="23" y="-20" type="curve"/>
      <point x="23" y="-30" type="line"/>
      <point x="37.119" y="-30.253"/>
      <point x="41.697" y="-24.812"/>
      <point x="41.843" y="-0.376" type="curve" smooth="yes"/>
      <point x="42" y="26" type="line"/>
      <point x="23.298" y="26" type="line"/>
      <point x="23.01" y="7" type="line"/>
      <point x="31" y="7" type="line"/>
      <point x="31" y="-9" type="line" smooth="yes"/>
      <point x="31" y="-19.117"/>
      <point x="28.476" y="-20"/>
    </contour>
  </outline>
</glyph>
<glyph name="period" format="2">
  <advance width="70"/>
  <unicode hex="002E"/>
  <outline>
    <contour>
      <point x="34.513" y="0.276" type="curve" smooth="yes"/>
      <point x="38.618" y="0.276"/>
      <point x="42.724" y="4.382"/>
      <point x="42.724" y="8.487" type="curve" smooth="yes"/>
      <point x="42.724" y="13.618"/>
      <point x="38.618" y="17.724"/>
      <point x="34.513" y="17.724" type="curve" smooth="yes"/>
      <point x="29.382" y="17.724"/>
      <point x="25.276" y="13.618"/>
      <point x="25.276" y="8.487" type="curve" smooth="yes"/>
      <point x="25.276" y="4.382"/>
      <point x="29.382" y="0.276"/>
    </contour>
  </outline>
</glyph>
<glyph name="zero" format="2">
  <advance width="152.03"/>
  <unicode hex="0030"/>
  <outline>
    <contour>
      <point x="76" y="-2" type="curve" smooth="yes"/>
      <point x="111" y="-2"/>
      <point x="132" y="36.992"/>
      <point x="132" y="97" type="curve" smooth="yes"/>
      <point x="132" y="155"/>
      <point x="111" y="194"/>
      <point x="76" y="194" type="curve" smooth="yes"/>
      <point x="39.986" y="194"/>
      <point x="19" y="155"/>
      <point x="18" y="97" type="curve" smooth="yes"/>
      <point x="16.966" y="37"/>
      <point x="39.986" y="-2"/>
    </contour>
    <contour>
      <point x="76" y="4" type="curve" smooth="yes"/>
      <point x="43.984" y="4"/>
      <point x="24" y="40"/>
      <point x="24" y="97" type="curve" smooth="yes"/>
      <point x="24" y="152"/>
      <point x="43.984" y="188"/>
      <point x="76" y="188" type="curve" smooth="yes"/>
      <point x="107" y="188"/>
      <point x="126" y="152"/>
      <point x="126" y="97" type="curve" smooth="yes"/>
      <point x="126" y="39.991"/>
      <point x="107" y="4"/>
    </contour>
  </outline>
</glyph>
<glyph name="one" format="2">
  <advance width="96"/>
  <unicode hex="0031"/>
  <outline>
    <contour>
      <point x="60" y="0" type="line"/>
      <point x="66" y="0" type="line"/>
      <point x="66" y="192" type="line"/>
      <point x="18" y="192" type="line"/>
      <point x="18" y="186" type="line"/>
      <point x="60" y="186" type="line"/>
    </contour>
  </outline>
</glyph>
<glyph name="two" format="2">
  <advance width="158"/>
  <unicode hex="0032"/>
  <outline>
    <contour>
      <point x="24" y="0" type="line"/>
      <point x="136" y="0" type="line"/>
      <point x="136" y="6" type="line"/>
      <point x="32" y="6" type="line"/>
      <point x="88" y="72" type="line" smooth="yes"/>
      <point x="116.496" y="105.585"/>
      <point x="125" y="126"/>
      <point x="126" y="146" type="curve" smooth="yes"/>
      <point x="125" y="174"/>
      <point x="104" y="195"/>
      <point x="76" y="194" type="curve" smooth="yes"/>
      <point x="47" y="195"/>
      <point x="27" y="173"/>
      <point x="26" y="146" type="curve"/>
      <point x="32" y="146" type="line"/>
      <point x="33" y="169"/>
      <point x="51" y="189"/>
      <point x="76" y="188" type="curve" smooth="yes"/>
      <point x="101" y="189"/>
      <point x="119" y="171"/>
      <point x="120" y="146" type="curve" smooth="yes"/>
      <point x="119" y="128"/>
      <point x="110.804" y="108.165"/>
      <point x="84" y="76" type="curve" smooth="yes"/>
      <point x="24" y="4" type="line"/>
    </contour>
  </outline>
</glyph>
<glyph name="three" format="2">
  <advance width="158.04"/>
  <unicode hex="0033"/>
  <outline>
    <contour>
      <point x="80" y="-2" type="curve" smooth="yes"/>
      <point x="112" y="-2"/>
      <point x="134" y="19.982"/>
      <point x="134" y="48" type="curve" smooth="yes"/>
      <point x="134" y="72"/>
      <point x="119" y="93"/>
      <point x="94" y="99" type="curve"/>
      <point x="116" y="106"/>
      <point x="130" y="125"/>
      <point x="130" y="148" type="curve" smooth="yes"/>
      <point x="130" y="174.019"/>
      <point x="108" y="194"/>
      <point x="78" y="194" type="curve" smooth="yes"/>
      <point x="49.982" y="194"/>
      <point x="28" y="174"/>
      <point x="28" y="146" type="curve"/>
      <point x="34" y="146" type="line"/>
      <point x="34" y="171"/>
      <point x="52.98" y="188"/>
      <point x="78" y="188" type="curve" smooth="yes"/>
      <point x="105" y="188"/>
      <point x="124" y="171.022"/>
      <point x="124" y="148" type="curve" smooth="yes"/>
      <point x="124" y="121"/>
      <point x="102.018" y="101"/>
      <point x="74" y="101" type="curve" smooth="yes"/>
      <point x="70" y="101" type="line"/>
      <point x="70" y="97" type="line"/>
      <point x="74" y="97" type="line" smooth="yes"/>
      <point x="106.016" y="97"/>
      <point x="128" y="75"/>
      <point x="128" y="48" type="curve" smooth="yes"/>
      <point x="128" y="23.979"/>
      <point x="109" y="4"/>
      <point x="80" y="4" type="curve" smooth="yes"/>
      <point x="50.983" y="4"/>
      <point x="30" y="21"/>
      <point x="30" y="46" type="curve"/>
      <point x="24" y="46" type="line"/>
      <point x="24" y="18"/>
      <point x="47.984" y="-2"/>
    </contour>
  </outline>
</glyph>
<glyph name="four" format="2">
  <advance width="152"/>
  <unicode hex="0034"/>
  <outline>
    <contour>
      <point x="104" y="0" type="line"/>
      <point x="110" y="0" type="line"/>
      <point x="110" y="50" type="line"/>
      <point x="134" y="50" type="line"/>
      <point x="134" y="56" type="line"/>
      <point x="110" y="56" type="line"/>
      <point x="110" y="192" type="line"/>
      <point x="104" y="192" type="line"/>
      <point x="18" y="55" type="line"/>
      <point x="18" y="50" type="line"/>
      <point x="104" y="50" type="line"/>
    </contour>
    <contour>
      <point x="26" y="56" type="line"/>
      <point x="104" y="180" type="line"/>
      <point x="104" y="56" type="line"/>
    </contour>
  </outline>
</glyph>
<glyph name="five" format="2">
  <advance width="146"/>
  <unicode hex="0035"/>
  <outline>
    <contour>
      <point x="70" y="-2" type="curve" smooth="yes"/>
      <point x="103" y="-3"/>
      <point x="126" y="23"/>
      <point x="126" y="58" type="curve" smooth="yes"/>
      <point x="126" y="95"/>
      <point x="104" y="121"/>
      <point x="70" y="122" type="curve" smooth="yes"/>
      <point x="60.108" y="122.291"/>
      <point x="45.488" y="120.264"/>
      <point x="32" y="107" type="curve"/>
      <point x="42" y="186" type="line"/>
      <point x="120" y="186" type="line"/>
      <point x="120" y="192" type="line"/>
      <point x="38" y="192" type="line"/>
      <point x="26" y="102" type="line"/>
      <point x="34" y="100" type="line"/>
      <point x="43" y="109"/>
      <point x="55" y="116"/>
      <point x="70" y="116" type="curve" smooth="yes"/>
      <point x="101" y="116"/>
      <point x="120" y="96"/>
      <point x="120" y="58" type="curve" smooth="yes"/>
      <point x="120" y="27"/>
      <point x="100" y="3"/>
      <point x="70" y="4" type="curve" smooth="yes"/>
      <point x="45" y="3"/>
      <point x="28" y="21"/>
      <point x="28" y="46" type="curve"/>
      <point x="22" y="46" type="line"/>
      <point x="22" y="18"/>
      <point x="42" y="-3"/>
    </contour>
  </outline>
</glyph>
<glyph name="six" format="2">
  <advance width="150"/>
  <unicode hex="0036"/>
  <outline>
    <contour>
      <point x="76" y="-2" type="curve" smooth="yes"/>
      <point x="107" y="-3"/>
      <point x="128" y="25"/>
      <point x="128" y="56" type="curve" smooth="yes"/>
      <point x="128" y="89"/>
      <point x="104" y="114"/>
      <point x="74" y="114" type="curve" smooth="yes"/>
      <point x="45.02" y="114"/>
      <point x="32.175" y="95.878"/>
      <point x="26" y="80" type="curve"/>
      <point x="27" y="145"/>
      <point x="43.985" y="188"/>
      <point x="78" y="188" type="curve" smooth="yes"/>
      <point x="102" y="188"/>
      <point x="120" y="168"/>
      <point x="120" y="138" type="curve"/>
      <point x="126" y="138" type="line"/>
      <point x="126" y="172"/>
      <point x="105" y="194"/>
      <point x="78" y="194" type="curve" smooth="yes"/>
      <point x="32.989" y="194"/>
      <point x="21" y="135"/>
      <point x="20" y="84" type="curve" smooth="yes"/>
      <point x="21" y="26"/>
      <point x="44" y="-3"/>
    </contour>
    <contour>
      <point x="76" y="4" type="curve" smooth="yes"/>
      <point x="53" y="3"/>
      <point x="29" y="28"/>
      <point x="29" y="62" type="curve" smooth="yes"/>
      <point x="29" y="90.636"/>
      <point x="46" y="108"/>
      <point x="74" y="108" type="curve" smooth="yes"/>
      <point x="101" y="108"/>
      <point x="122" y="85"/>
      <point x="122" y="56" type="curve" smooth="yes"/>
      <point x="122" y="26.983"/>
      <point x="103" y="3"/>
    </contour>
  </outline>
</glyph>
<glyph name="seven" format="2">
  <advance width="140"/>
  <unicode hex="0037"/>
  <outline>
    <contour>
      <point x="28" y="0" type="line"/>
      <point x="35" y="0" type="line"/>
      <point x="122" y="186" type="line"/>
      <point x="122" y="192" type="line"/>
      <point x="14" y="192" type="line"/>
      <point x="14" y="186" type="line"/>
      <point x="116" y="186" type="line"/>
    </contour>
  </outline>
</glyph>
<glyph name="eight" format="2">
  <advance width="154"/>
  <unicode hex="0038"/>
  <outline>
    <contour>
      <point x="78" y="-2" type="curve" smooth="yes"/>
      <point x="109.016" y="-2"/>
      <point x="134" y="20"/>
      <point x="134" y="48" type="curve" smooth="yes"/>
      <point x="134" y="70.023"/>
      <point x="120" y="96"/>
      <point x="96" y="99" type="curve"/>
      <point x="115" y="105"/>
      <point x="128" y="127"/>
      <point x="128" y="148" type="curve" smooth="yes"/>
      <point x="128" y="174.019"/>
      <point x="105" y="194"/>
      <point x="78" y="194" type="curve" smooth="yes"/>
      <point x="48.983" y="194"/>
      <point x="26" y="174.019"/>
      <point x="26" y="148" type="curve" smooth="yes"/>
      <point x="26" y="127"/>
      <point x="39" y="106"/>
      <point x="58" y="99" type="curve"/>
      <point x="36" y="94"/>
      <point x="20" y="70.023"/>
      <point x="20" y="48" type="curve" smooth="yes"/>
      <point x="20" y="20"/>
      <point x="45" y="-2"/>
    </contour>
    <contour>
      <point x="78" y="4" type="curve" smooth="yes"/>
      <point x="48" y="4"/>
      <point x="26" y="25"/>
      <point x="26" y="48" type="curve" smooth="yes"/>
      <point x="26" y="73.02"/>
      <point x="48" y="96"/>
      <point x="78" y="97" type="curve" smooth="yes"/>
      <point x="106" y="96"/>
      <point x="130" y="73.02"/>
      <point x="130" y="48" type="curve" smooth="yes"/>
      <point x="130" y="24"/>
      <point x="106.018" y="4"/>
    </contour>
    <contour>
      <point x="78" y="101" type="curve" smooth="yes"/>
      <point x="52" y="102"/>
      <point x="32" y="124"/>
      <point x="32" y="148" type="curve" smooth="yes"/>
      <point x="32" y="171.022"/>
      <point x="51.981" y="188"/>
      <point x="78" y="188" type="curve" smooth="yes"/>
      <point x="102" y="188"/>
      <point x="122" y="171.022"/>
      <point x="122" y="148" type="curve" smooth="yes"/>
      <point x="122" y="124"/>
      <point x="102" y="102"/>
    </contour>
  </outline>
</glyph>
<glyph name="nine" format="2">
  <advance width="150"/>
  <unicode hex="0039"/>
  <outline>
    <contour>
      <point x="72" y="-2" type="curve" smooth="yes"/>
      <point x="116.011" y="-2"/>
      <point x="128" y="44"/>
      <point x="128" y="119" type="curve" smooth="yes"/>
      <point x="128" y="176"/>
      <point x="105" y="194"/>
      <point x="74" y="194" type="curve" smooth="yes"/>
      <point x="41.984" y="194"/>
      <point x="20" y="169.016"/>
      <point x="20" y="136" type="curve" smooth="yes"/>
      <point x="20" y="102"/>
      <point x="42.983" y="78"/>
      <point x="74" y="78" type="curve" smooth="yes"/>
      <point x="104" y="78"/>
      <point x="117" y="99"/>
      <point x="122" y="117" type="curve"/>
      <point x="123" y="43"/>
      <point x="105.015" y="4"/>
      <point x="72" y="4" type="curve" smooth="yes"/>
      <point x="47" y="4"/>
      <point x="33" y="21"/>
      <point x="30" y="46" type="curve"/>
      <point x="24" y="46" type="line"/>
      <point x="26" y="18"/>
      <point x="44" y="-2"/>
    </contour>
    <contour>
      <point x="74" y="84" type="curve" smooth="yes"/>
      <point x="45.981" y="84"/>
      <point x="26" y="105"/>
      <point x="26" y="136" type="curve" smooth="yes"/>
      <point x="26" y="167.017"/>
      <point x="45.982" y="188"/>
      <point x="74" y="188" type="curve" smooth="yes"/>
      <point x="96" y="188"/>
      <point x="120" y="172.757"/>
      <point x="120" y="140" type="curve" smooth="yes"/>
      <point x="120" y="110"/>
      <point x="104" y="84"/>
    </contour>
  </outline>
</glyph>
<glyph name="A" format="2">
  <advance width="158"/>
  <unicode hex="0041"/>
  <outline>
    <contour>
      <point x="8" y="0" type="line"/>
      <point x="13" y="0" type="line"/>
      <point x="37" y="67" type="line"/>
      <point x="121" y="67" type="line"/>
      <point x="145" y="0" type="line"/>
      <point x="150" y="0" type="line"/>
      <point x="82" y="192" type="line"/>
      <point x="76" y="192" type="line"/>
    </contour>
    <contour>
      <point x="38" y="71" type="line"/>
      <point x="79" y="188" type="line"/>
      <point x="120" y="71" type="line"/>
    </contour>
  </outline>
</glyph>
<glyph name="B" format="2">
  <advance width="164"/>
  <unicode hex="0042"/>
  <outline>
    <contour>
      <point x="29" y="0" type="line"/>
      <point x="94" y="0" type="line" smooth="yes"/>
      <point x="128.015" y="0"/>
      <point x="145" y="19"/>
      <point x="145" y="48" type="curve" smooth="yes"/>
      <point x="145" y="74"/>
      <point x="127.94" y="90.338"/>
      <point x="109" y="94" type="curve"/>
      <point x="128" y="99"/>
      <point x="139" y="117"/>
      <point x="139" y="138" type="curve" smooth="yes"/>
      <point x="139" y="168.017"/>
      <point x="122.015" y="186"/>
      <point x="88" y="186" type="curve" smooth="yes"/>
      <point x="29" y="186" type="line"/>
    </contour>
    <contour>
      <point x="34" y="4" type="line"/>
      <point x="34" y="92" type="line"/>
      <point x="94" y="92" type="line" smooth="yes"/>
      <point x="120" y="92"/>
      <point x="140" y="73.02"/>
      <point x="140" y="48" type="curve" smooth="yes"/>
      <point x="140" y="23"/>
      <point x="125" y="4"/>
      <point x="94" y="4" type="curve" smooth="yes"/>
    </contour>
    <contour>
      <point x="34" y="97" type="line"/>
      <point x="34" y="182" type="line"/>
      <point x="88" y="182" type="line" smooth="yes"/>
      <point x="114" y="182"/>
      <point x="134" y="165.019"/>
      <point x="134" y="138" type="curve" smooth="yes"/>
      <point x="134" y="117"/>
      <point x="122.682" y="97"/>
      <point x="94" y="97" type="curve" smooth="yes"/>
    </contour>
  </outline>
</glyph>
<glyph name="C" format="2">
  <advance width="186"/>
  <unicode hex="0043"/>
  <outline>
    <contour>
      <point x="96" y="-2" type="curve" smooth="yes"/>
      <point x="139.012" y="-2"/>
      <point x="162" y="32"/>
      <point x="166" y="58" type="curve"/>
      <point x="160" y="58" type="line"/>
      <point x="156" y="33"/>
      <point x="134.013" y="4"/>
      <point x="96" y="4" type="curve" smooth="yes"/>
      <point x="57" y="4"/>
      <point x="24" y="35"/>
      <point x="24" y="94" type="curve" smooth="yes"/>
      <point x="24" y="151"/>
      <point x="56.987" y="182"/>
      <point x="96" y="182" type="curve" smooth="yes"/>
      <point x="134" y="182"/>
      <point x="156" y="153"/>
      <point x="160" y="128" type="curve"/>
      <point x="166" y="128" type="line"/>
      <point x="162" y="155"/>
      <point x="139" y="188"/>
      <point x="96" y="188" type="curve" smooth="yes"/>
      <point x="49.989" y="188"/>
      <point x="18" y="150.009"/>
      <point x="18" y="94" type="curve" smooth="yes"/>
      <point x="18" y="36"/>
      <point x="50" y="-2"/>
    </contour>
  </outline>
</glyph>
<glyph name="D" format="2">
  <advance width="184"/>
  <unicode hex="0044"/>
  <outline>
    <contour>
      <point x="29" y="0" type="line"/>
      <point x="78" y="0" type="line" smooth="yes"/>
      <point x="132" y="0"/>
      <point x="164" y="37"/>
      <point x="164" y="97" type="curve" smooth="yes"/>
      <point x="164" y="155"/>
      <point x="134" y="192"/>
      <point x="82" y="192" type="curve" smooth="yes"/>
      <point x="29" y="192" type="line"/>
    </contour>
    <contour>
      <point x="34" y="4" type="line"/>
      <point x="34" y="188" type="line"/>
      <point x="82" y="188" type="line" smooth="yes"/>
      <point x="131" y="188"/>
      <point x="158" y="151"/>
      <point x="158" y="97" type="curve" smooth="yes"/>
      <point x="159" y="42"/>
      <point x="129" y="4"/>
      <point x="78" y="4" type="curve" smooth="yes"/>
    </contour>
  </outline>
</glyph>
<glyph name="E" format="2">
  <advance width="150"/>
  <unicode hex="0045"/>
  <outline>
    <contour>
      <point x="29" y="0" type="line"/>
      <point x="130" y="0" type="line"/>
      <point x="130" y="5" type="line"/>
      <point x="34" y="5" type="line"/>
      <point x="34" y="95" type="line"/>
      <point x="122" y="95" type="line"/>
      <point x="122" y="100" type="line"/>
      <point x="34" y="100" type="line"/>
      <point x="34" y="187" type="line"/>
      <point x="128" y="187" type="line"/>
      <point x="128" y="192" type="line"/>
      <point x="29" y="192" type="line"/>
    </contour>
  </outline>
</glyph>
<glyph name="F" format="2">
  <advance width="150"/>
  <unicode hex="0046"/>
  <outline>
    <contour>
      <point x="30" y="0" type="line"/>
      <point x="34" y="0" type="line"/>
      <point x="34" y="96" type="line"/>
      <point x="120" y="96" type="line"/>
      <point x="120" y="102" type="line"/>
      <point x="34" y="102" type="line"/>
      <point x="34" y="186" type="line"/>
      <point x="130" y="186" type="line"/>
      <point x="130" y="192" type="line"/>
      <point x="30" y="192" type="line"/>
    </contour>
  </outline>
</glyph>
<glyph name="G" format="2">
  <advance width="192"/>
  <unicode hex="0047"/>
  <outline>
    <contour>
      <point x="96" y="-2" type="curve" smooth="yes"/>
      <point x="127" y="-3"/>
      <point x="151" y="13"/>
      <point x="162" y="44" type="curve"/>
      <point x="162" y="0" type="line"/>
      <point x="168" y="0" type="line"/>
      <point x="168" y="84" type="line"/>
      <point x="98" y="84" type="line"/>
      <point x="98" y="78" type="line"/>
      <point x="162.025" y="78" type="line"/>
      <point x="162.216" y="31.196"/>
      <point x="134.455" y="3.014"/>
      <point x="96" y="4" type="curve" smooth="yes"/>
      <point x="52" y="3"/>
      <point x="24" y="40"/>
      <point x="24" y="94" type="curve" smooth="yes"/>
      <point x="24" y="153"/>
      <point x="53" y="189"/>
      <point x="96" y="188" type="curve" smooth="yes"/>
      <point x="134" y="189"/>
      <point x="156" y="159"/>
      <point x="161" y="134" type="curve"/>
      <point x="166" y="134" type="line"/>
      <point x="163" y="161"/>
      <point x="139" y="195"/>
      <point x="96" y="194" type="curve" smooth="yes"/>
      <point x="49" y="195"/>
      <point x="19" y="156"/>
      <point x="18" y="94" type="curve" smooth="yes"/>
      <point x="17.064" y="35.999"/>
      <point x="49" y="-3"/>
    </contour>
  </outline>
</glyph>
<glyph name="H" format="2">
  <advance width="192"/>
  <unicode hex="0048"/>
  <outline>
    <contour>
      <point x="30" y="0" type="line"/>
      <point x="36" y="0" type="line"/>
      <point x="36" y="96" type="line"/>
      <point x="156" y="96" type="line"/>
      <point x="156" y="0" type="line"/>
      <point x="162" y="0" type="line"/>
      <point x="162" y="192" type="line"/>
      <point x="156" y="192" type="line"/>
      <point x="156" y="102" type="line"/>
      <point x="36" y="102" type="line"/>
      <point x="36" y="192" type="line"/>
      <point x="30" y="192" type="line"/>
    </contour>
  </outline>
</glyph>
<glyph name="I" format="2">
  <advance width="66"/>
  <unicode hex="0049"/>
  <outline>
    <contour>
      <point x="30" y="0" type="line"/>
      <point x="36" y="0" type="line"/>
      <point x="36" y="192" type="line"/>
      <point x="30" y="192" type="line"/>
    </contour>
  </outline>
</glyph>
<glyph name="J" format="2">
  <advance width="134"/>
  <unicode hex="004A"/>
  <outline>
    <contour>
      <point x="58" y="-2" type="curve" smooth="yes"/>
      <point x="83" y="-2"/>
      <point x="104" y="11.974"/>
      <point x="104" y="50" type="curve" smooth="yes"/>
      <point x="104" y="192" type="line"/>
      <point x="98" y="192" type="line"/>
      <point x="98" y="50" type="line" smooth="yes"/>
      <point x="98" y="14.971"/>
      <point x="79" y="4"/>
      <point x="58" y="4" type="curve" smooth="yes"/>
      <point x="36.976" y="4"/>
      <point x="20" y="17"/>
      <point x="20" y="34" type="curve"/>
      <point x="14" y="34" type="line"/>
      <point x="14" y="13"/>
      <point x="32.98" y="-2"/>
    </contour>
  </outline>
</glyph>
<glyph name="K" format="2">
  <advance width="166"/>
  <unicode hex="004B"/>
  <outline>
    <contour>
      <point x="29" y="0" type="line"/>
      <point x="34" y="0" type="line"/>
      <point x="34" y="66" type="line"/>
      <point x="62" y="98" type="line"/>
      <point x="140" y="0" type="line"/>
      <point x="148" y="0" type="line"/>
      <point x="66" y="102" type="line"/>
      <point x="150" y="192" type="line"/>
      <point x="142" y="192" type="line"/>
      <point x="34" y="74" type="line"/>
      <point x="34" y="192" type="line"/>
      <point x="29" y="192" type="line"/>
    </contour>
  </outline>
</glyph>
<glyph name="L" format="2">
  <advance width="144"/>
  <unicode hex="004C"/>
  <outline>
    <contour>
      <point x="28" y="0" type="line"/>
      <point x="128" y="0" type="line"/>
      <point x="128" y="6" type="line"/>
      <point x="34" y="6" type="line"/>
      <point x="34" y="192" type="line"/>
      <point x="28" y="192" type="line"/>
    </contour>
  </outline>
</glyph>
<glyph name="M" format="2">
  <advance width="222"/>
  <unicode hex="004D"/>
  <outline>
    <contour>
      <point x="28" y="0" type="line"/>
      <point x="34" y="0" type="line"/>
      <point x="34" y="175" type="line"/>
      <point x="108" y="0" type="line"/>
      <point x="114" y="0" type="line"/>
      <point x="186" y="175" type="line"/>
      <point x="186" y="0" type="line"/>
      <point x="192" y="0" type="line"/>
      <point x="192" y="192" type="line"/>
      <point x="186" y="192" type="line"/>
      <point x="111" y="8" type="line"/>
      <point x="34" y="192" type="line"/>
      <point x="28" y="192" type="line"/>
    </contour>
  </outline>
</glyph>
<glyph name="N" format="2">
  <advance width="192"/>
  <unicode hex="004E"/>
  <outline>
    <contour>
      <point x="28" y="0" type="line"/>
      <point x="34" y="0" type="line"/>
      <point x="34" y="181" type="line"/>
      <point x="163.65" y="-0.135" type="line"/>
      <point x="168" y="0" type="line"/>
      <point x="168" y="192" type="line"/>
      <point x="162" y="192" type="line"/>
      <point x="162" y="11" type="line"/>
      <point x="34" y="192" type="line"/>
      <point x="28" y="192" type="line"/>
    </contour>
  </outline>
</glyph>
<glyph name="O" format="2">
  <advance width="194"/>
  <unicode hex="004F"/>
  <outline>
    <contour>
      <point x="96" y="-2" type="curve" smooth="yes"/>
      <point x="141" y="-2"/>
      <point x="172" y="40"/>
      <point x="172" y="98" type="curve" smooth="yes"/>
      <point x="172" y="154.009"/>
      <point x="141" y="194"/>
      <point x="96" y="194" type="curve" smooth="yes"/>
      <point x="49.989" y="194"/>
      <point x="18" y="154.009"/>
      <point x="18" y="98" type="curve" smooth="yes"/>
      <point x="18" y="40"/>
      <point x="49.989" y="-2"/>
    </contour>
    <contour>
      <point x="96" y="4" type="curve" smooth="yes"/>
      <point x="52.988" y="4"/>
      <point x="24" y="44"/>
      <point x="24" y="98" type="curve" smooth="yes"/>
      <point x="24" y="151"/>
      <point x="52.988" y="188"/>
      <point x="96" y="188" type="curve" smooth="yes"/>
      <point x="138" y="188"/>
      <point x="166" y="151.009"/>
      <point x="166" y="98" type="curve" smooth="yes"/>
      <point x="166" y="44"/>
      <point x="138" y="4"/>
    </contour>
  </outline>
</glyph>
<glyph name="P" format="2">
  <advance width="162"/>
  <unicode hex="0050"/>
  <outline>
    <contour>
      <point x="28" y="0" type="line"/>
      <point x="34" y="0" type="line"/>
      <point x="34" y="84" type="line"/>
      <point x="84" y="84" type="line" smooth="yes"/>
      <point x="115.016" y="84"/>
      <point x="137" y="106"/>
      <point x="138" y="138" type="curve" smooth="yes"/>
      <point x="137" y="170"/>
      <point x="115" y="192"/>
      <point x="84" y="192" type="curve" smooth="yes"/>
      <point x="28" y="192" type="line"/>
    </contour>
    <contour>
      <point x="34" y="90" type="line"/>
      <point x="34" y="186" type="line"/>
      <point x="84" y="186" type="line" smooth="yes"/>
      <point x="112" y="186"/>
      <point x="131" y="166"/>
      <point x="132" y="138" type="curve" smooth="yes"/>
      <point x="131" y="109"/>
      <point x="112.018" y="90"/>
      <point x="84" y="90" type="curve" smooth="yes"/>
    </contour>
  </outline>
</glyph>
<glyph name="R" format="2">
  <advance width="164"/>
  <unicode hex="0052"/>
  <outline>
    <contour>
      <point x="29" y="0" type="line"/>
      <point x="34" y="0" type="line"/>
      <point x="34" y="83" type="line"/>
      <point x="95.617" y="83.047" type="line"/>
      <point x="140" y="0" type="line"/>
      <point x="146" y="0" type="line"/>
      <point x="100.929" y="84.303" type="line"/>
      <point x="122.742" y="90.595"/>
      <point x="137.182" y="111.398"/>
      <point x="137" y="138" type="curve" smooth="yes"/>
      <point x="136.774" y="171.015"/>
      <point x="116.016" y="192"/>
      <point x="83" y="192" type="curve" smooth="yes"/>
      <point x="29" y="192" type="line"/>
    </contour>
    <contour>
      <point x="34" y="88" type="line"/>
      <point x="34" y="187" type="line"/>
      <point x="84" y="187" type="line" smooth="yes"/>
      <point x="112" y="187"/>
      <point x="132" y="166.018"/>
      <point x="132" y="138" type="curve" smooth="yes"/>
      <point x="132" y="109"/>
      <point x="112" y="88"/>
      <point x="90" y="88" type="curve" smooth="yes"/>
    </contour>
  </outline>
</glyph>
<glyph name="S" format="2">
  <advance width="164"/>
  <unicode hex="0053"/>
  <outline>
    <contour>
      <point x="78" y="-2" type="curve" smooth="yes"/>
      <point x="113" y="-2"/>
      <point x="138" y="18"/>
      <point x="138" y="48" type="curve" smooth="yes"/>
      <point x="138" y="70.023"/>
      <point x="120.471" y="78.624"/>
      <point x="91" y="94" type="curve" smooth="yes"/>
      <point x="68" y="106" type="line" smooth="yes"/>
      <point x="42.412" y="119.35"/>
      <point x="30" y="126"/>
      <point x="30" y="146" type="curve" smooth="yes"/>
      <point x="30" y="170"/>
      <point x="51" y="188"/>
      <point x="80" y="188" type="curve" smooth="yes"/>
      <point x="108.018" y="188"/>
      <point x="127" y="169"/>
      <point x="128" y="144" type="curve"/>
      <point x="134" y="144" type="line"/>
      <point x="133" y="172"/>
      <point x="111.016" y="194"/>
      <point x="80" y="194" type="curve" smooth="yes"/>
      <point x="47" y="194"/>
      <point x="24" y="173"/>
      <point x="24" y="146" type="curve" smooth="yes"/>
      <point x="24" y="124"/>
      <point x="38.473" y="114.362"/>
      <point x="66" y="100" type="curve" smooth="yes"/>
      <point x="89" y="88" type="line" smooth="yes"/>
      <point x="117.619" y="73.068"/>
      <point x="132" y="67.026"/>
      <point x="132" y="48" type="curve" smooth="yes"/>
      <point x="132" y="21"/>
      <point x="110" y="2"/>
      <point x="78" y="2" type="curve" smooth="yes"/>
      <point x="46.984" y="2"/>
      <point x="27" y="20"/>
      <point x="26" y="44" type="curve"/>
      <point x="20" y="44" type="line"/>
      <point x="21" y="16"/>
      <point x="43.985" y="-2"/>
    </contour>
  </outline>
</glyph>
<glyph name="T" format="2">
  <advance width="158"/>
  <unicode hex="0054"/>
  <outline>
    <contour>
      <point x="16" y="186" type="line"/>
      <point x="76" y="186" type="line"/>
      <point x="76" y="0" type="line"/>
      <point x="82" y="0" type="line"/>
      <point x="82" y="186" type="line"/>
      <point x="142" y="186" type="line"/>
      <point x="142" y="192" type="line"/>
      <point x="16" y="192" type="line"/>
    </contour>
  </outline>
</glyph>
<glyph name="U" format="2">
  <advance width="196"/>
  <unicode hex="0055"/>
  <outline>
    <contour>
      <point x="98" y="-2" type="curve" smooth="yes"/>
      <point x="136" y="-2"/>
      <point x="166" y="24.946"/>
      <point x="166" y="62" type="curve" smooth="yes"/>
      <point x="166" y="192" type="line"/>
      <point x="160" y="192" type="line"/>
      <point x="160" y="62" type="line" smooth="yes"/>
      <point x="160" y="29.941"/>
      <point x="133" y="4"/>
      <point x="98" y="4" type="curve" smooth="yes"/>
      <point x="62.986" y="4"/>
      <point x="36" y="29.927"/>
      <point x="36" y="62" type="curve" smooth="yes"/>
      <point x="36" y="192" type="line"/>
      <point x="30" y="192" type="line"/>
      <point x="30" y="62" type="line" smooth="yes"/>
      <point x="30" y="24.973"/>
      <point x="59.987" y="-2"/>
    </contour>
  </outline>
</glyph>
<glyph name="V" format="2">
  <advance width="160"/>
  <unicode hex="0056"/>
  <outline>
    <contour>
      <point x="75" y="0" type="line"/>
      <point x="84" y="0" type="line"/>
      <point x="152" y="192" type="line"/>
      <point x="145" y="192" type="line"/>
      <point x="80" y="8" type="line"/>
      <point x="15" y="192" type="line"/>
      <point x="8" y="192" type="line"/>
    </contour>
  </outline>
</glyph>
<glyph name="W" format="2">
  <advance width="230"/>
  <unicode hex="0057"/>
  <outline>
    <contour>
      <point x="58" y="0" type="line"/>
      <point x="66" y="0" type="line"/>
      <point x="114" y="184" type="line"/>
      <point x="162" y="0" type="line"/>
      <point x="170" y="0" type="line"/>
      <point x="222" y="192" type="line"/>
      <point x="214" y="192" type="line"/>
      <point x="166" y="10" type="line"/>
      <point x="118" y="192" type="line"/>
      <point x="110" y="192" type="line"/>
      <point x="62" y="10" type="line"/>
      <point x="14" y="192" type="line"/>
      <point x="8" y="192" type="line"/>
    </contour>
  </outline>
</glyph>
<glyph name="X" format="2">
  <advance width="150"/>
  <unicode hex="0058"/>
  <outline>
    <contour>
      <point x="8" y="0" type="line"/>
      <point x="16" y="0" type="line"/>
      <point x="75" y="91" type="line"/>
      <point x="134" y="0" type="line"/>
      <point x="142" y="0" type="line"/>
      <point x="78" y="97" type="line"/>
      <point x="142" y="192" type="line"/>
      <point x="134" y="192" type="line"/>
      <point x="75" y="101" type="line"/>
      <point x="16" y="192" type="line"/>
      <point x="8" y="192" type="line"/>
      <point x="72" y="97" type="line"/>
    </contour>
  </outline>
</glyph>
<glyph name="Y" format="2">
  <advance width="158"/>
  <unicode hex="0059"/>
  <outline>
    <contour>
      <point x="76" y="0" type="line"/>
      <point x="82" y="0" type="line"/>
      <point x="82" y="92" type="line"/>
      <point x="148" y="192" type="line"/>
      <point x="142" y="192" type="line"/>
      <point x="79" y="98" type="line"/>
      <point x="16" y="192" type="line"/>
      <point x="8" y="192" type="line"/>
      <point x="76" y="92" type="line"/>
    </contour>
  </outline>
</glyph>
<glyph name="Z" format="2">
  <advance width="154"/>
  <unicode hex="005A"/>
  <outline>
    <contour>
      <point x="20" y="0" type="line"/>
      <point x="136" y="0" type="line"/>
      <point x="136" y="6" type="line"/>
      <point x="26" y="6" type="line"/>
      <point x="136" y="186" type="line"/>
      <point x="136" y="192" type="line"/>
      <point x="20" y="192" type="line"/>
      <point x="20" y="186" type="line"/>
      <point x="128" y="186" type="line"/>
      <point x="20" y="6" type="line"/>
    </contour>
  </outline>
</glyph>
<glyph name="a" format="2">
  <advance width="138"/>
  <unicode hex="0061"/>
  <outline>
    <contour>
      <point x="60" y="-2" type="curve" smooth="yes"/>
      <point x="80.793" y="-1.99"/>
      <point x="98.719" y="10.366"/>
      <point x="108" y="28" type="curve"/>
      <point x="108" y="18.667"/>
      <point x="109" y="9.333"/>
      <point x="112" y="0" type="curve"/>
      <point x="118" y="0" type="line"/>
      <point x="115" y="9.116"/>
      <point x="114" y="18.232"/>
      <point x="114" y="27.348" type="curve" smooth="yes"/>
      <point x="114" y="104" type="line" smooth="yes"/>
      <point x="114" y="128.021"/>
      <point x="96" y="146"/>
      <point x="68" y="146" type="curve" smooth="yes"/>
      <point x="46" y="146"/>
      <point x="21" y="134"/>
      <point x="21" y="116" type="curve"/>
      <point x="27" y="116" type="line"/>
      <point x="27" y="131"/>
      <point x="48" y="140"/>
      <point x="68" y="140" type="curve" smooth="yes"/>
      <point x="98.812" y="140"/>
      <point x="108" y="118.939"/>
      <point x="108" y="92" type="curve" smooth="yes"/>
      <point x="108" y="81.286"/>
      <point x="90.945" y="79.915"/>
      <point x="71.684" y="77.322" type="curve" smooth="yes"/>
      <point x="46.698" y="73.959"/>
      <point x="18" y="68.539"/>
      <point x="18" y="38" type="curve" smooth="yes"/>
      <point x="18" y="12"/>
      <point x="36.978" y="-2.011"/>
    </contour>
    <contour>
      <point x="60" y="2" type="curve" smooth="yes"/>
      <point x="38.976" y="2"/>
      <point x="23" y="17"/>
      <point x="23" y="38" type="curve" smooth="yes"/>
      <point x="23" y="56.028"/>
      <point x="34.952" y="67.369"/>
      <point x="72" y="72" type="curve" smooth="yes"/>
      <point x="88" y="74"/>
      <point x="100" y="76"/>
      <point x="108" y="80" type="curve"/>
      <point x="108" y="54" type="line" smooth="yes"/>
      <point x="108" y="24.968"/>
      <point x="86" y="2"/>
    </contour>
  </outline>
</glyph>
<glyph name="b" format="2">
  <advance width="154.03"/>
  <unicode hex="0062"/>
  <outline>
    <contour>
      <point x="29" y="0" type="line"/>
      <point x="34" y="0" type="line"/>
      <point x="34" y="38" type="line"/>
      <point x="38.525" y="17.605"/>
      <point x="56.425" y="-2.072"/>
      <point x="82" y="-2" type="curve" smooth="yes"/>
      <point x="116.015" y="-1.897"/>
      <point x="136" y="30"/>
      <point x="136" y="72" type="curve" smooth="yes"/>
      <point x="136" y="113.012"/>
      <point x="116" y="148"/>
      <point x="82" y="148" type="curve" smooth="yes"/>
      <point x="60.3" y="148"/>
      <point x="40.097" y="130.692"/>
      <point x="34" y="106" type="curve"/>
      <point x="34" y="192" type="line"/>
      <point x="29" y="192" type="line"/>
    </contour>
    <contour>
      <point x="82" y="2" type="curve" smooth="yes"/>
      <point x="53" y="2"/>
      <point x="34" y="38"/>
      <point x="34" y="76" type="curve" smooth="yes"/>
      <point x="34" y="113.014"/>
      <point x="53" y="142"/>
      <point x="82" y="142" type="curve" smooth="yes"/>
      <point x="112" y="142"/>
      <point x="130" y="109.014"/>
      <point x="130" y="72" type="curve" smooth="yes"/>
      <point x="130" y="34"/>
      <point x="113.016" y="2"/>
    </contour>
  </outline>
</glyph>
<glyph name="c" format="2">
  <advance width="142"/>
  <unicode hex="0063"/>
  <outline>
    <contour>
      <point x="74" y="-2" type="curve" smooth="yes"/>
      <point x="100" y="-2"/>
      <point x="122" y="14"/>
      <point x="126" y="44" type="curve"/>
      <point x="120" y="44" type="line"/>
      <point x="117" y="18"/>
      <point x="97" y="2"/>
      <point x="74" y="2" type="curve" smooth="yes"/>
      <point x="43.983" y="2"/>
      <point x="22" y="32"/>
      <point x="22" y="70" type="curve" smooth="yes"/>
      <point x="22" y="108"/>
      <point x="45" y="140"/>
      <point x="74" y="140" type="curve" smooth="yes"/>
      <point x="97" y="140"/>
      <point x="116" y="125"/>
      <point x="119" y="97" type="curve"/>
      <point x="125" y="97" type="line"/>
      <point x="121" y="128"/>
      <point x="100" y="146"/>
      <point x="74" y="146" type="curve" smooth="yes"/>
      <point x="41" y="146"/>
      <point x="16" y="110"/>
      <point x="16" y="70" type="curve" smooth="yes"/>
      <point x="16" y="28"/>
      <point x="40.985" y="-2"/>
    </contour>
  </outline>
</glyph>
<glyph name="d" format="2">
  <advance width="154"/>
  <unicode hex="0064"/>
  <outline>
    <contour>
      <point x="70" y="-2" type="curve" smooth="yes"/>
      <point x="93" y="-3"/>
      <point x="110" y="12"/>
      <point x="118" y="34" type="curve"/>
      <point x="118" y="0" type="line"/>
      <point x="124" y="0" type="line"/>
      <point x="124" y="192" type="line"/>
      <point x="118" y="192" type="line"/>
      <point x="118" y="108" type="line"/>
      <point x="110" y="131"/>
      <point x="95" y="146"/>
      <point x="70" y="146" type="curve" smooth="yes"/>
      <point x="37" y="146"/>
      <point x="16" y="111"/>
      <point x="16" y="70" type="curve" smooth="yes"/>
      <point x="16" y="28"/>
      <point x="37" y="-3"/>
    </contour>
    <contour>
      <point x="70" y="2" type="curve" smooth="yes"/>
      <point x="41" y="3"/>
      <point x="22" y="32"/>
      <point x="22" y="70" type="curve" smooth="yes"/>
      <point x="22" y="107"/>
      <point x="41" y="140"/>
      <point x="70" y="140" type="curve" smooth="yes"/>
      <point x="100" y="140"/>
      <point x="118" y="114"/>
      <point x="118" y="70" type="curve" smooth="yes"/>
      <point x="118" y="32"/>
      <point x="100" y="3"/>
    </contour>
  </outline>
</glyph>
<glyph name="e" format="2">
  <advance width="150"/>
  <unicode hex="0065"/>
  <outline>
    <contour>
      <point x="78" y="-2" type="curve" smooth="yes"/>
      <point x="104" y="-3"/>
      <point x="124.186" y="12.804"/>
      <point x="129" y="28" type="curve"/>
      <point x="123" y="28" type="line"/>
      <point x="119" y="20"/>
      <point x="103" y="3"/>
      <point x="78" y="2" type="curve" smooth="yes"/>
      <point x="42" y="3"/>
      <point x="22" y="38"/>
      <point x="22" y="74" type="curve"/>
      <point x="132" y="74" type="line"/>
      <point x="132" y="80" type="line" smooth="yes"/>
      <point x="132" y="116.014"/>
      <point x="107" y="146"/>
      <point x="74" y="146" type="curve" smooth="yes"/>
      <point x="41" y="146"/>
      <point x="16" y="115"/>
      <point x="16" y="74" type="curve" smooth="yes"/>
      <point x="16" y="32"/>
      <point x="40" y="-3"/>
    </contour>
    <contour>
      <point x="22.338" y="80" type="line"/>
      <point x="25.37" y="114.911"/>
      <point x="46.549" y="140"/>
      <point x="74" y="140" type="curve" smooth="yes"/>
      <point x="102" y="140"/>
      <point x="125" y="113"/>
      <point x="126" y="80" type="curve"/>
    </contour>
  </outline>
</glyph>
<glyph name="f" format="2">
  <advance width="84"/>
  <unicode hex="0066"/>
  <outline>
    <contour>
      <point x="36" y="0" type="line"/>
      <point x="42" y="0" type="line"/>
      <point x="42" y="134" type="line"/>
      <point x="72" y="134" type="line"/>
      <point x="72" y="140" type="line"/>
      <point x="42" y="140" type="line"/>
      <point x="42" y="167" type="line" smooth="yes"/>
      <point x="42" y="185.111"/>
      <point x="47.834" y="188"/>
      <point x="60" y="188" type="curve" smooth="yes"/>
      <point x="72" y="188" type="line"/>
      <point x="72" y="194" type="line"/>
      <point x="60" y="194" type="line" smooth="yes"/>
      <point x="43.875" y="194"/>
      <point x="36" y="187.1"/>
      <point x="36" y="167" type="curve" smooth="yes"/>
      <point x="36" y="140" type="line"/>
      <point x="18" y="140" type="line"/>
      <point x="18" y="134" type="line"/>
      <point x="36" y="134" type="line"/>
    </contour>
  </outline>
</glyph>
<glyph name="g" format="2">
  <advance width="150"/>
  <unicode hex="0067"/>
  <outline>
    <contour>
      <point x="75" y="-56" type="curve" smooth="yes"/>
      <point x="107.016" y="-56"/>
      <point x="124" y="-39"/>
      <point x="124" y="-2" type="curve" smooth="yes"/>
      <point x="124" y="144" type="line"/>
      <point x="118" y="144" type="line"/>
      <point x="118" y="108" type="line"/>
      <point x="110" y="131"/>
      <point x="93" y="146"/>
      <point x="70" y="146" type="curve" smooth="yes"/>
      <point x="37" y="146"/>
      <point x="16" y="115"/>
      <point x="16" y="74" type="curve" smooth="yes"/>
      <point x="16" y="32"/>
      <point x="37" y="0"/>
      <point x="70" y="0" type="curve" smooth="yes"/>
      <point x="91" y="0"/>
      <point x="110" y="12"/>
      <point x="118" y="34" type="curve"/>
      <point x="118" y="-2" type="line" smooth="yes"/>
      <point x="118" y="-36"/>
      <point x="104.017" y="-50"/>
      <point x="75" y="-50" type="curve" smooth="yes"/>
      <point x="46" y="-50"/>
      <point x="28" y="-46"/>
      <point x="28" y="-30" type="curve"/>
      <point x="22" y="-30" type="line"/>
      <point x="22" y="-53"/>
      <point x="44" y="-56"/>
    </contour>
    <contour>
      <point x="70" y="6" type="curve" smooth="yes"/>
      <point x="41" y="6"/>
      <point x="22" y="36"/>
      <point x="22" y="74" type="curve" smooth="yes"/>
      <point x="22" y="111"/>
      <point x="41" y="140"/>
      <point x="70" y="140" type="curve" smooth="yes"/>
      <point x="100" y="140"/>
      <point x="118" y="111"/>
      <point x="118" y="74" type="curve" smooth="yes"/>
      <point x="118" y="34"/>
      <point x="99" y="6"/>
    </contour>
  </outline>
</glyph>
<glyph name="h" format="2">
  <advance width="152"/>
  <unicode hex="0068"/>
  <outline>
    <contour>
      <point x="24" y="0" type="line"/>
      <point x="30" y="0" type="line"/>
      <point x="30" y="98" type="line" smooth="yes"/>
      <point x="30" y="122.021"/>
      <point x="48" y="140"/>
      <point x="74" y="140" type="curve" smooth="yes"/>
      <point x="98" y="140"/>
      <point x="114" y="123.06"/>
      <point x="114" y="98" type="curve" smooth="yes"/>
      <point x="114" y="0" type="line"/>
      <point x="120" y="0" type="line"/>
      <point x="120" y="98" type="line" smooth="yes"/>
      <point x="120" y="126.054"/>
      <point x="101.018" y="146.075"/>
      <point x="74" y="146" type="curve" smooth="yes"/>
      <point x="52.828" y="145.941"/>
      <point x="34.752" y="133.815"/>
      <point x="30" y="118" type="curve"/>
      <point x="30" y="192" type="line"/>
      <point x="24" y="192" type="line"/>
    </contour>
  </outline>
</glyph>
<glyph name="i" format="2">
  <advance width="50"/>
  <unicode hex="0069"/>
  <outline>
    <contour>
      <point x="22" y="158" type="line"/>
      <point x="28" y="158" type="line"/>
      <point x="28" y="192" type="line"/>
      <point x="22" y="192" type="line"/>
    </contour>
    <contour>
      <point x="22" y="0" type="line"/>
      <point x="28" y="0" type="line"/>
      <point x="28" y="144" type="line"/>
      <point x="22" y="144" type="line"/>
    </contour>
  </outline>
</glyph>
<glyph name="j" format="2">
  <advance width="54"/>
  <unicode hex="006A"/>
  <outline>
    <contour>
      <point x="0" y="-52" type="line"/>
      <point x="27.009" y="-52"/>
      <point x="32" y="-39.445"/>
      <point x="32" y="-20" type="curve" smooth="yes"/>
      <point x="32" y="144" type="line"/>
      <point x="26" y="144" type="line"/>
      <point x="26" y="-20" type="line" smooth="yes"/>
      <point x="26" y="-44.552"/>
      <point x="10.713" y="-46.453"/>
      <point x="0" y="-46" type="curve"/>
    </contour>
    <contour>
      <point x="25.854" y="156.779" type="line"/>
      <point x="31.854" y="156.779" type="line"/>
      <point x="31.854" y="191.779" type="line"/>
      <point x="25.854" y="191.779" type="line"/>
    </contour>
  </outline>
</glyph>
<glyph name="k" format="2">
  <advance width="124"/>
  <unicode hex="006B"/>
  <outline>
    <contour>
      <point x="24" y="0" type="line"/>
      <point x="30" y="0" type="line"/>
      <point x="30" y="60" type="line"/>
      <point x="49.739" y="79.739" type="line"/>
      <point x="108" y="0" type="line"/>
      <point x="116" y="0" type="line"/>
      <point x="53.028" y="83.965" type="line"/>
      <point x="114" y="144" type="line"/>
      <point x="106" y="144" type="line"/>
      <point x="30" y="68" type="line"/>
      <point x="30" y="192" type="line"/>
      <point x="24" y="192" type="line"/>
    </contour>
  </outline>
</glyph>
<glyph name="l" format="2">
  <advance width="54"/>
  <unicode hex="006C"/>
  <outline>
    <contour>
      <point x="24" y="0" type="line"/>
      <point x="30" y="0" type="line"/>
      <point x="30" y="192" type="line"/>
      <point x="24" y="192" type="line"/>
    </contour>
  </outline>
</glyph>
<glyph name="m" format="2">
  <advance width="214"/>
  <unicode hex="006D"/>
  <outline>
    <contour>
      <point x="24" y="0" type="line"/>
      <point x="30" y="0" type="line"/>
      <point x="30" y="98" type="line" smooth="yes"/>
      <point x="30" y="122.021"/>
      <point x="44" y="140"/>
      <point x="68" y="140" type="curve" smooth="yes"/>
      <point x="93" y="140"/>
      <point x="104" y="123"/>
      <point x="104" y="98" type="curve" smooth="yes"/>
      <point x="104" y="0" type="line"/>
      <point x="110" y="0" type="line"/>
      <point x="110" y="98" type="line" smooth="yes"/>
      <point x="110" y="122"/>
      <point x="123" y="140"/>
      <point x="148" y="140" type="curve" smooth="yes"/>
      <point x="173" y="140"/>
      <point x="184" y="123.02"/>
      <point x="184" y="98" type="curve" smooth="yes"/>
      <point x="184" y="0" type="line"/>
      <point x="190" y="0" type="line"/>
      <point x="190" y="98" type="line" smooth="yes"/>
      <point x="190" y="126.018"/>
      <point x="176.018" y="146"/>
      <point x="148" y="146" type="curve" smooth="yes"/>
      <point x="126.423" y="146"/>
      <point x="112.409" y="132.227"/>
      <point x="107" y="116" type="curve"/>
      <point x="103" y="134"/>
      <point x="90.023" y="146"/>
      <point x="68" y="146" type="curve" smooth="yes"/>
      <point x="49.468" y="146"/>
      <point x="32.209" y="132.155"/>
      <point x="30" y="119" type="curve"/>
      <point x="30" y="144" type="line"/>
      <point x="24" y="144" type="line"/>
    </contour>
  </outline>
</glyph>
<glyph name="n" format="2">
  <advance width="144.04"/>
  <unicode hex="006E"/>
  <outline>
    <contour>
      <point x="30" y="98" type="line" smooth="yes"/>
      <point x="30" y="122.021"/>
      <point x="48" y="140"/>
      <point x="74" y="140" type="curve" smooth="yes"/>
      <point x="98" y="140"/>
      <point x="114" y="123"/>
      <point x="114" y="98" type="curve" smooth="yes"/>
      <point x="114" y="0" type="line"/>
      <point x="120" y="0" type="line"/>
      <point x="120" y="98" type="line" smooth="yes"/>
      <point x="120" y="126.054"/>
      <point x="101" y="146"/>
      <point x="74" y="146" type="curve" smooth="yes"/>
      <point x="53.975" y="146"/>
      <point x="38" y="136"/>
      <point x="32" y="122" type="curve"/>
      <point x="30" y="122" type="line"/>
      <point x="30" y="144" type="line"/>
      <point x="24" y="144" type="line"/>
      <point x="24" y="0" type="line"/>
      <point x="30" y="0" type="line"/>
    </contour>
  </outline>
</glyph>
<glyph name="o" format="2">
  <advance width="152"/>
  <unicode hex="006F"/>
  <outline>
    <contour>
      <point x="74" y="-2" type="curve" smooth="yes"/>
      <point x="107" y="-2"/>
      <point x="132" y="30"/>
      <point x="132" y="72" type="curve" smooth="yes"/>
      <point x="132" y="113"/>
      <point x="107" y="146"/>
      <point x="74" y="146" type="curve" smooth="yes"/>
      <point x="41" y="146"/>
      <point x="16" y="113"/>
      <point x="16" y="72" type="curve" smooth="yes"/>
      <point x="16" y="30"/>
      <point x="40.985" y="-2"/>
    </contour>
    <contour>
      <point x="74" y="2" type="curve" smooth="yes"/>
      <point x="44.983" y="2"/>
      <point x="22" y="34"/>
      <point x="22" y="72" type="curve" smooth="yes"/>
      <point x="22" y="109"/>
      <point x="45" y="140"/>
      <point x="74" y="140" type="curve" smooth="yes"/>
      <point x="104" y="140"/>
      <point x="126" y="109"/>
      <point x="126" y="72" type="curve" smooth="yes"/>
      <point x="126" y="34"/>
      <point x="104" y="2"/>
    </contour>
  </outline>
</glyph>
<glyph name="p" format="2">
  <advance width="148"/>
  <unicode hex="0070"/>
  <outline>
    <contour>
      <point x="24" y="-52" type="line"/>
      <point x="30" y="-52" type="line"/>
      <point x="30" y="34" type="line"/>
      <point x="38" y="12"/>
      <point x="56" y="-3"/>
      <point x="78" y="-2" type="curve" smooth="yes"/>
      <point x="111" y="-3"/>
      <point x="132" y="28"/>
      <point x="132" y="70" type="curve" smooth="yes"/>
      <point x="132" y="115"/>
      <point x="111" y="146"/>
      <point x="78" y="146" type="curve" smooth="yes"/>
      <point x="55" y="146"/>
      <point x="38" y="131"/>
      <point x="30" y="108" type="curve"/>
      <point x="30" y="144" type="line"/>
      <point x="24" y="144" type="line"/>
    </contour>
    <contour>
      <point x="78" y="2" type="curve" smooth="yes"/>
      <point x="48" y="3"/>
      <point x="30" y="32"/>
      <point x="30" y="70" type="curve" smooth="yes"/>
      <point x="30" y="111"/>
      <point x="48" y="140"/>
      <point x="78" y="140" type="curve" smooth="yes"/>
      <point x="107" y="140"/>
      <point x="126" y="111"/>
      <point x="126" y="70" type="curve" smooth="yes"/>
      <point x="126" y="32"/>
      <point x="107" y="3"/>
    </contour>
  </outline>
</glyph>
<glyph name="q" format="2">
  <advance width="148"/>
  <unicode hex="0071"/>
  <outline>
    <contour>
      <point x="70" y="-2" type="curve" smooth="yes"/>
      <point x="92" y="-2"/>
      <point x="110" y="12"/>
      <point x="118" y="34" type="curve"/>
      <point x="118" y="-52" type="line"/>
      <point x="124" y="-52" type="line"/>
      <point x="124" y="144" type="line"/>
      <point x="118" y="144" type="line"/>
      <point x="118" y="108" type="line"/>
      <point x="110" y="132"/>
      <point x="92" y="146"/>
      <point x="70" y="146" type="curve" smooth="yes"/>
      <point x="36" y="146"/>
      <point x="16" y="112"/>
      <point x="16" y="70" type="curve" smooth="yes"/>
      <point x="16" y="28"/>
      <point x="35.941" y="-2"/>
    </contour>
    <contour>
      <point x="70" y="2" type="curve" smooth="yes"/>
      <point x="39.933" y="2"/>
      <point x="22" y="32"/>
      <point x="22" y="70" type="curve" smooth="yes"/>
      <point x="22" y="108"/>
      <point x="40" y="140"/>
      <point x="70" y="140" type="curve" smooth="yes"/>
      <point x="100" y="140"/>
      <point x="118" y="112"/>
      <point x="118" y="70" type="curve" smooth="yes"/>
      <point x="118" y="32"/>
      <point x="100" y="2"/>
    </contour>
  </outline>
</glyph>
<glyph name="r" format="2">
  <advance width="84"/>
  <unicode hex="0072"/>
  <outline>
    <contour>
      <point x="24" y="0" type="line"/>
      <point x="30" y="0" type="line"/>
      <point x="30" y="98" type="line" smooth="yes"/>
      <point x="30" y="122.021"/>
      <point x="47" y="140"/>
      <point x="69" y="140" type="curve" smooth="yes"/>
      <point x="75" y="140" type="line"/>
      <point x="75" y="146" type="line"/>
      <point x="51.715" y="145.942"/>
      <point x="34.961" y="134.345"/>
      <point x="30" y="117" type="curve"/>
      <point x="30" y="144" type="line"/>
      <point x="24" y="144" type="line"/>
    </contour>
  </outline>
</glyph>
<glyph name="s" format="2">
  <advance width="134"/>
  <unicode hex="0073"/>
  <outline>
    <contour>
      <point x="62" y="-2" type="curve" smooth="yes"/>
      <point x="90" y="-2"/>
      <point x="110" y="11.979"/>
      <point x="110" y="36" type="curve" smooth="yes"/>
      <point x="110" y="52"/>
      <point x="97.652" y="61.067"/>
      <point x="78" y="70" type="curve" smooth="yes"/>
      <point x="56" y="80" type="line" smooth="yes"/>
      <point x="38.324" y="88.035"/>
      <point x="28" y="94"/>
      <point x="28" y="110" type="curve" smooth="yes"/>
      <point x="28" y="128"/>
      <point x="43" y="140"/>
      <point x="66" y="140" type="curve" smooth="yes"/>
      <point x="85" y="140"/>
      <point x="99" y="131"/>
      <point x="102" y="112" type="curve"/>
      <point x="108" y="112" type="line"/>
      <point x="106" y="133"/>
      <point x="87" y="146"/>
      <point x="66" y="146" type="curve" smooth="yes"/>
      <point x="40" y="146"/>
      <point x="22" y="131"/>
      <point x="22" y="110" type="curve" smooth="yes"/>
      <point x="22" y="92"/>
      <point x="34.348" y="82.933"/>
      <point x="54" y="74" type="curve" smooth="yes"/>
      <point x="76" y="64" type="line" smooth="yes"/>
      <point x="93.676" y="55.965"/>
      <point x="105" y="50"/>
      <point x="105" y="36" type="curve" smooth="yes"/>
      <point x="105" y="16"/>
      <point x="87" y="2"/>
      <point x="62" y="2" type="curve" smooth="yes"/>
      <point x="40.976" y="2"/>
      <point x="24" y="14"/>
      <point x="22" y="34" type="curve"/>
      <point x="16.183" y="33.738" type="line"/>
      <point x="18.183" y="11.738"/>
      <point x="37.979" y="-2"/>
    </contour>
  </outline>
</glyph>
<glyph name="t" format="2">
  <advance width="89"/>
  <unicode hex="0074"/>
  <outline>
    <contour>
      <point x="60" y="0" type="curve" smooth="yes"/>
      <point x="68" y="0" type="line"/>
      <point x="68" y="6" type="line"/>
      <point x="60" y="6" type="line" smooth="yes"/>
      <point x="47" y="6"/>
      <point x="40" y="12"/>
      <point x="40" y="32" type="curve" smooth="yes"/>
      <point x="40" y="138" type="line"/>
      <point x="68" y="138" type="line"/>
      <point x="68" y="144" type="line"/>
      <point x="40" y="144" type="line"/>
      <point x="40" y="174" type="line"/>
      <point x="34" y="174" type="line"/>
      <point x="34" y="144" type="line"/>
      <point x="14" y="144" type="line"/>
      <point x="14" y="138" type="line"/>
      <point x="34" y="138" type="line"/>
      <point x="34" y="30" type="line" smooth="yes"/>
      <point x="34" y="8"/>
      <point x="40.726" y="0"/>
    </contour>
  </outline>
</glyph>
<glyph name="u" format="2">
  <advance width="146"/>
  <unicode hex="0075"/>
  <outline>
    <contour>
      <point x="72" y="-2" type="curve" smooth="yes"/>
      <point x="92" y="-2"/>
      <point x="108" y="8"/>
      <point x="114" y="22" type="curve"/>
      <point x="114" y="0" type="line"/>
      <point x="120" y="0" type="line"/>
      <point x="120" y="144" type="line"/>
      <point x="114" y="144" type="line"/>
      <point x="114" y="46" type="line" smooth="yes"/>
      <point x="114" y="20.98"/>
      <point x="97" y="4"/>
      <point x="72" y="4" type="curve" smooth="yes"/>
      <point x="48" y="4"/>
      <point x="30" y="20.98"/>
      <point x="30" y="46" type="curve" smooth="yes"/>
      <point x="30" y="144" type="line"/>
      <point x="24" y="144" type="line"/>
      <point x="24" y="46" type="line" smooth="yes"/>
      <point x="24" y="17.982"/>
      <point x="44" y="-2"/>
    </contour>
  </outline>
</glyph>
<glyph name="v" format="2">
  <advance width="134"/>
  <unicode hex="0076"/>
  <outline>
    <contour>
      <point x="62" y="0" type="line"/>
      <point x="70" y="0" type="line"/>
      <point x="120" y="144" type="line"/>
      <point x="114" y="144" type="line"/>
      <point x="66" y="6" type="line"/>
      <point x="20" y="144" type="line"/>
      <point x="14" y="144" type="line"/>
    </contour>
  </outline>
</glyph>
<glyph name="w" format="2">
  <advance width="202"/>
  <unicode hex="0077"/>
  <outline>
    <contour>
      <point x="54" y="0" type="line"/>
      <point x="62" y="0" type="line"/>
      <point x="101" y="132" type="line"/>
      <point x="140" y="0" type="line"/>
      <point x="148" y="0" type="line"/>
      <point x="190" y="144" type="line"/>
      <point x="182" y="144" type="line"/>
      <point x="144" y="8" type="line"/>
      <point x="104" y="144" type="line"/>
      <point x="98" y="144" type="line"/>
      <point x="58" y="8" type="line"/>
      <point x="20" y="144" type="line"/>
      <point x="14" y="144" type="line"/>
    </contour>
  </outline>
</glyph>
<glyph name="x" format="2">
  <advance width="128"/>
  <unicode hex="0078"/>
  <outline>
    <contour>
      <point x="16" y="0" type="line"/>
      <point x="22" y="0" type="line"/>
      <point x="64" y="66" type="line"/>
      <point x="106" y="0" type="line"/>
      <point x="112" y="0" type="line"/>
      <point x="68" y="72" type="line"/>
      <point x="112" y="144" type="line"/>
      <point x="106" y="144" type="line"/>
      <point x="64" y="78" type="line"/>
      <point x="22" y="144" type="line"/>
      <point x="16" y="144" type="line"/>
      <point x="60" y="72" type="line"/>
    </contour>
  </outline>
</glyph>
<glyph name="y" format="2">
  <advance width="134"/>
  <unicode hex="0079"/>
  <outline>
    <contour>
      <point x="16" y="-52" type="line"/>
      <point x="32" y="-52" type="line"/>
      <point x="45" y="-52"/>
      <point x="56.179" y="-43.062"/>
      <point x="62" y="-26" type="curve" smooth="yes"/>
      <point x="120" y="144" type="line"/>
      <point x="114" y="144" type="line"/>
      <point x="67" y="6" type="line"/>
      <point x="20" y="144" type="line"/>
      <point x="14" y="144" type="line"/>
      <point x="64" y="-2" type="line"/>
      <point x="56" y="-24" type="line" smooth="yes"/>
      <point x="48.759" y="-43.914"/>
      <point x="37.842" y="-46.936"/>
      <point x="16" y="-46.897" type="curve"/>
    </contour>
  </outline>
</glyph>
<glyph name="z" format="2">
  <advance width="130"/>
  <unicode hex="007A"/>
  <outline>
    <contour>
      <point x="20" y="0" type="line"/>
      <point x="114" y="0" type="line"/>
      <point x="114" y="6" type="line"/>
      <point x="27" y="6" type="line"/>
      <point x="110" y="138" type="line"/>
      <point x="110" y="144" type="line"/>
      <point x="25" y="144" type="line"/>
      <point x="25" y="138" type="line"/>
      <point x="103" y="138" type="line"/>
      <point x="20" y="6" type="line"/>
    </contour>
  </outline>
</glyph>
